<svg xmlns="http://www.w3.org/2000/svg" xmlns:xlink="http://www.w3.org/1999/xlink" viewBox="0 0 245.109 245.109"><defs><style>.cls-1{fill:none;}.cls-2{fill:#009245;stroke:#fcee21;stroke-width:2px;}.cls-2,.cls-33{stroke-miterlimit:10;}.cls-3{isolation:isolate;}.cls-4{clip-path:url(#clip-path);}.cls-5{fill:#004822;}.cls-6{fill:#004521;}.cls-7{fill:#00411f;}.cls-8{fill:#003e1d;}.cls-9{fill:#004c24;}.cls-10{fill:#004f26;}.cls-11{fill:#005327;}.cls-12{fill:#005629;}.cls-13{fill:#005a2b;}.cls-14{fill:#005d2c;}.cls-15{fill:#00612e;}.cls-16{fill:#00642f;}.cls-17{fill:#006831;}.cls-18{fill:#006b33;}.cls-19{fill:#006f34;}.cls-20{fill:#007236;}.cls-21{fill:#007638;}.cls-22{fill:#007939;}.cls-23{fill:#007d3b;}.cls-24{fill:#00803d;}.cls-25{fill:#00843e;}.cls-26{fill:#008740;}.cls-27{fill:#008b42;}.cls-28{fill:#008e43;}.cls-29{clip-path:url(#clip-path-2);}.cls-30{clip-path:url(#clip-path-3);}.cls-31{fill:url(#linear-gradient);}.cls-32{fill:url(#linear-gradient-2);}.cls-33{stroke:#fff;stroke-width:3px;fill:url(#linear-gradient-3);}.cls-34{fill:url(#linear-gradient-4);}</style><clipPath id="clip-path"><path class="cls-1" d="M122.557,239.21a117.123,117.123,0,0,1-18.86-1.522,115.734,115.734,0,0,1-49.808-20.912,116.711,116.711,0,0,1-34.625-40.4A115.427,115.427,0,0,1,7.807,141.8a117.69,117.69,0,0,1,0-37.72A116.18,116.18,0,0,1,40.341,40.723,116.614,116.614,0,0,1,69.123,19.646,115.406,115.406,0,0,1,103.7,8.19a117.009,117.009,0,0,1,18.86-1.522c5.672.229,13.3.4,18.86,1.522,2.726.55,6.41,1.086,9.081,1.857a181.35,181.35,0,0,1,17.317,5.758A100.124,100.124,0,0,1,183.8,24.088c2.228,1.5,5.317,3.343,7.421,5.013,4.2,3.328,9.62,7.983,13.548,11.622h0A116.614,116.614,0,0,1,225.85,69.505c1.153,2.453,2.786,5.68,3.841,8.176,1.062,2.512,3.21,5.779,3.21,8.507a115.672,115.672,0,0,1,4.406,17.891c.34,2.8.909,6.515,1.136,9.324.23,2.854.385,6.673.385,9.536a117.132,117.132,0,0,1-1.521,18.86A115.672,115.672,0,0,1,232.9,159.69c-.963,2.552-2.148,5.994-3.21,8.507-1.055,2.5-3.841,5.465-3.841,8.175a116.251,116.251,0,0,1-9.455,15.235c-1.667,2.1-3.733,5.033-5.555,7a172.36,172.36,0,0,1-12.615,12.614A173.343,173.343,0,0,1,183.8,221.79a80.492,80.492,0,0,1-7.813,4.442,116.146,116.146,0,0,1-25.493,9.6,175.857,175.857,0,0,1-18.4,2.993C129.251,239.168,125.42,239.152,122.557,239.21Z"/></clipPath><clipPath id="clip-path-2"><path class="cls-1" d="M238.828,122.939c-.114-5.675-.835-13.225-1.521-18.86h0A115.672,115.672,0,0,0,232.9,86.188c-1.918-5.084-4.74-11.765-7.051-16.683h0a116.594,116.594,0,0,0-21.077-28.783c-3.928-3.639-9.352-8.294-13.548-11.622-2.1-1.67-5.193-3.511-7.421-5.013a100.124,100.124,0,0,0-15.989-8.283A181.35,181.35,0,0,0,150.5,10.047c-2.671-.771-6.355-1.307-9.081-1.857-5.564-1.124-13.188-1.293-18.86-1.522h0a116.271,116.271,0,0,1,0,232.542c2.861-.116,6.694-.042,9.536-.386a175.857,175.857,0,0,0,18.405-2.993,116.146,116.146,0,0,0,25.493-9.6,80.492,80.492,0,0,0,7.813-4.442,173.343,173.343,0,0,0,14.421-10.569,172.36,172.36,0,0,0,12.615-12.614c1.822-1.967,3.888-4.9,5.555-7a116.251,116.251,0,0,0,9.455-15.235c2.311-4.917,5.133-11.6,7.051-16.682a115.672,115.672,0,0,0,4.406-17.891A117.132,117.132,0,0,0,238.828,122.939Z"/></clipPath><clipPath id="clip-path-3"><path class="cls-1" d="M122.557,239.21a117.123,117.123,0,0,1-18.86-1.522,115.734,115.734,0,0,1-49.808-20.912,116.711,116.711,0,0,1-34.625-40.4A115.427,115.427,0,0,1,7.807,141.8a117.69,117.69,0,0,1,0-37.72A116.18,116.18,0,0,1,40.341,40.723,116.614,116.614,0,0,1,69.123,19.646,115.406,115.406,0,0,1,103.7,8.19a116.278,116.278,0,1,1,18.86,231.02Z"/></clipPath><linearGradient id="linear-gradient" x1="41.209" y1="168.32" x2="81.213" y2="156.752" gradientUnits="userSpaceOnUse"><stop offset="0" stop-color="#085500"/><stop offset="0.636" stop-color="#488e37"/><stop offset="1" stop-color="#68ab53"/></linearGradient><linearGradient id="linear-gradient-2" x1="193.304" y1="147.437" x2="162.564" y2="191.718" gradientUnits="userSpaceOnUse"><stop offset="0" stop-color="#085500"/><stop offset="0.048" stop-color="#0e5a05"/><stop offset="0.482" stop-color="#3e862f"/><stop offset="0.814" stop-color="#5da149"/><stop offset="1" stop-color="#68ab53"/></linearGradient><linearGradient id="linear-gradient-3" x1="34.852" y1="137.415" x2="207.503" y2="137.415" gradientUnits="userSpaceOnUse"><stop offset="0" stop-color="#aeff94"/><stop offset="1" stop-color="#085500"/></linearGradient><linearGradient id="linear-gradient-4" x1="38.436" y1="137.01" x2="213.992" y2="137.01" gradientUnits="userSpaceOnUse"><stop offset="0" stop-color="#085500"/><stop offset="0.023" stop-color="#105e08"/><stop offset="0.258" stop-color="#65b453"/><stop offset="0.423" stop-color="#9aea82"/><stop offset="0.504" stop-color="#aeff94"/><stop offset="0.568" stop-color="#a2f289"/><stop offset="0.688" stop-color="#82d06b"/><stop offset="0.848" stop-color="#4f9a3a"/><stop offset="1" stop-color="#196007"/></linearGradient></defs><g id="Layer_2" data-name="Layer 2"><g id="text_btn"><circle class="cls-2" cx="122.555" cy="122.555" r="121.555"/><g class="cls-3"><g class="cls-3"><g class="cls-4"><g class="cls-3"><path class="cls-5" d="M122.557,239.21c11.555-.467,16.828-.68,27.941-3.379a115.926,115.926,0,0,0,47.727-24.61c8.139-6.974,11.7-11.464,18.17-19.614a116.251,116.251,0,0,0,9.455-15.235c2.311-4.917,5.133-11.6,7.051-16.682a115.672,115.672,0,0,0,4.406-17.891,117.132,117.132,0,0,0,1.521-18.86c-.229-5.672-.835-13.225-1.521-18.86A115.672,115.672,0,0,0,232.9,86.188c-1.918-5.084-4.74-11.765-7.051-16.683a116.614,116.614,0,0,0-21.077-28.782c-9.714-9-9.9-9.172-20.969-16.635a100.124,100.124,0,0,0-15.989-8.283c-10.766-4.459-15.664-5.448-26.4-7.615-5.564-1.124-13.188-1.293-18.86-1.522A117.009,117.009,0,0,0,103.7,8.19,115.756,115.756,0,0,0,53.889,29.1,116.722,116.722,0,0,0,19.264,69.506,115.427,115.427,0,0,0,7.807,104.079a117.69,117.69,0,0,0,0,37.72,116.18,116.18,0,0,0,32.534,63.356,116.681,116.681,0,0,0,28.782,21.077A115.481,115.481,0,0,0,103.7,237.688a117.123,117.123,0,0,0,18.86,1.522"/><path class="cls-5" d="M103.7,8.19A115.756,115.756,0,0,0,53.889,29.1,116.722,116.722,0,0,0,19.264,69.506,115.427,115.427,0,0,0,7.807,104.079a117.69,117.69,0,0,0,0,37.72,116.18,116.18,0,0,0,32.534,63.356,116.681,116.681,0,0,0,28.782,21.077A115.481,115.481,0,0,0,103.7,237.688a117.123,117.123,0,0,0,18.86,1.522l9.536-.386,9.324-1.136,9.081-1.857,8.81-2.549,8.507-3.209,5.645-2.568-5.782,2.593C75.371,265.012,12.265,172.255,51.176,96.279,94.647,11.4,205.858,9.784,234.246,93.619c6.356,18.77,4.238,38.319,3.441,45.678a117.363,117.363,0,0,0,1.141-16.358h0c-.229-5.672-.835-13.225-1.521-18.86A115.672,115.672,0,0,0,232.9,86.188h0c-1.918-5.084-4.74-11.765-7.051-16.683a116.614,116.614,0,0,0-21.077-28.782h0c-3.928-3.639-9.353-8.293-13.548-11.622L183.8,24.088l-7.813-4.442-8.176-3.841-8.507-3.21-8.81-2.548L141.417,8.19l-9.324-1.137-9.536-.385A117.009,117.009,0,0,0,103.7,8.19"/><path class="cls-6" d="M103.7,8.19A115.756,115.756,0,0,0,53.889,29.1,116.722,116.722,0,0,0,19.264,69.506,115.427,115.427,0,0,0,7.807,104.079a117.69,117.69,0,0,0,0,37.72,116.18,116.18,0,0,0,32.534,63.356,116.681,116.681,0,0,0,28.782,21.077A115.481,115.481,0,0,0,103.7,237.688a117.123,117.123,0,0,0,18.86,1.522l9.536-.386,9.324-1.136,9.061-1.852-1.263.3C65.756,253.828-1.836,168.392,54.292,80.731c49.8-77.773,161.65-68.183,181.337,15.548a108.025,108.025,0,0,1,2.872,17.874l-1.077-9.342-.117-.732A115.672,115.672,0,0,0,232.9,86.188h0c-1.918-5.084-4.74-11.765-7.051-16.683a116.614,116.614,0,0,0-21.077-28.782h0c-3.928-3.639-9.353-8.293-13.548-11.622L183.8,24.088l-7.813-4.442-8.176-3.841-8.507-3.21-8.81-2.548L141.417,8.19l-9.324-1.137-9.536-.385A117.009,117.009,0,0,0,103.7,8.19"/><path class="cls-7" d="M103.7,8.19A115.756,115.756,0,0,0,53.889,29.1,116.722,116.722,0,0,0,19.264,69.506,115.427,115.427,0,0,0,7.807,104.079a117.69,117.69,0,0,0,0,37.72,116.18,116.18,0,0,0,32.534,63.356,116.681,116.681,0,0,0,28.782,21.077A115.481,115.481,0,0,0,103.7,237.688a117.123,117.123,0,0,0,18.86,1.522l3.694-.058-.853.024c-78.62,1.454-139.79-97.716-59.539-181.27C128.013-6.8,213.6,22.076,234.579,91.68q-.774-2.774-1.678-5.492h0c-1.918-5.084-4.74-11.765-7.051-16.683a116.614,116.614,0,0,0-21.077-28.782h0c-3.928-3.639-9.353-8.293-13.548-11.622L183.8,24.088l-7.813-4.442-8.176-3.841-8.507-3.21-8.81-2.548L141.417,8.19l-9.324-1.137-9.536-.385A117.009,117.009,0,0,0,103.7,8.19"/><path class="cls-8" d="M103.7,8.19A115.756,115.756,0,0,0,53.889,29.1,116.722,116.722,0,0,0,19.264,69.506,115.427,115.427,0,0,0,7.807,104.079a117.69,117.69,0,0,0,0,37.72,116.18,116.18,0,0,0,32.534,63.356,116.681,116.681,0,0,0,28.782,21.077A115.465,115.465,0,0,0,99.9,237h0C9.79,217.144-13.183,93.984,86.388,33.152c57.942-35.4,113.7-9.115,138.827,35.145a116.64,116.64,0,0,0-20.442-27.574h0c-3.928-3.639-9.353-8.293-13.548-11.622L183.8,24.088l-7.813-4.442-8.176-3.841-8.507-3.21-8.81-2.548L141.417,8.19l-9.324-1.137-9.536-.385A117.009,117.009,0,0,0,103.7,8.19"/><path class="cls-9" d="M71.6,213.667c31.008,29.007,86.778,37.815,135.955-11.392a116.589,116.589,0,0,0,18.293-25.9q.744-1.433,1.447-2.889h0C267.271,81.734,189.855,11.466,114.829,42.938,43.46,72.876,20.029,165.42,71.6,213.667"/><path class="cls-10" d="M61.438,195.661C105.709,267.615,216.264,238.343,235.4,149.6,252.768,69.057,171.984,3.591,93.067,61.091c-48.8,35.557-54.414,97.537-31.629,134.57"/><path class="cls-11" d="M65.663,195.661c43.8,70.322,151.305,41.049,169.156-46.062C251.325,69.048,170.02,7.714,91.842,68.122,58.117,94.182,39.07,152.97,65.663,195.661"/><path class="cls-12" d="M69.836,195.661c43.292,67.808,147.6,38.535,164.135-46.062,14.333-73.34-54.247-125.123-120.3-90.832-45.581,23.664-74.66,88.617-43.839,136.894"/><path class="cls-13" d="M74.192,195.661c41.21,64.775,143.569,35.072,158.73-46.062C246.365,77.661,178.211,28.88,113.373,64.033,66.394,89.5,47.353,153.473,74.192,195.661"/><path class="cls-14" d="M76.69,191.811c28.085,55.95,122.7,49.811,150.389-25.991C252.558,96.061,188.7,26.754,113.1,69.483,89.227,82.974,46.921,132.505,76.69,191.811"/><path class="cls-15" d="M83.181,195.661c43.974,63.724,135.333,23.917,147.073-46.062C241.79,80.836,169.37,34.9,112.846,75.133,63.471,110.275,63.893,167.71,83.181,195.661"/><path class="cls-16" d="M87.805,195.661c38.5,56.189,129.306,26.486,140.806-46.062,10.093-63.666-54.18-113.08-115.989-68.631-36.9,26.538-48.5,80.133-24.817,114.693"/><path class="cls-17" d="M92.561,195.661c35.21,52.062,123.01,21.928,134.209-46.062,9.31-56.524-49.088-110.537-114.343-62.641-29.458,21.622-44.213,72.7-19.866,108.7"/><path class="cls-18" d="M94,189.488c26.83,49.534,109.666,38.279,128.857-32.282,14.719-54.122-35.527-99.6-86.716-78.494C95.821,95.341,69.267,143.822,94,189.488"/><path class="cls-19" d="M103.2,195.661c38.331,47.545,111.928,10.075,119.112-46.062,6.546-51.16-47.226-97.449-105.864-53.32-17.1,12.87-45.2,59.746-13.248,99.382"/><path class="cls-20" d="M96.67,174.072c12.457,38.093,49.617,39.8,49.987,39.8,22.46,0,51.409-12.307,65.456-39.8,28.234-55.267-19.748-109.242-75.5-84.931C108.58,101.364,85.282,139.25,96.67,174.072"/><path class="cls-21" d="M101.99,174.072c11.78,35.132,45.789,36.114,46.13,36.114,31.419,0,52.241-18.655,61.25-36.114C236.752,121.01,190.632,70.454,136.8,94.52c-3.615,1.616-25.988,21.334-29.088,28.419-3.541,8.092-12.946,29.587-5.722,51.133"/><path class="cls-22" d="M107.408,174.072c12.924,39.791,72.078,46.366,98.631,0,21.864-38.18-4.846-85.1-46.1-80.985-3.026.3-20.4,6.42-22.957,8.081l-22.9,21.771c-.155.239-15.139,25.092-6.681,51.133"/><path class="cls-23" d="M112.916,174.072,131.1,195.661c4.773,3.524,19.672,6.443,19.783,6.443,23.022,0,40.236-9.431,51.164-28.032,15.28-26.008,3.347-50.9,3.217-51.133-6.108-11.029-23.11-21.067-23.274-21.155s-21.348-2.938-21.588-2.905c-4.48.621-28.758,8.868-38.351,24.06-.1.152-10.752,21.5-11.673,26.66-.052.293,2.417,24.08,2.541,24.473"/><path class="cls-24" d="M120.542,174.072,134.491,190.7c2.607,2.3,7.315,3.521,10.484,4.957,5.541,2.509,5.541,2.509,24.5.57,1.637-.167,21.324-14.025,21.463-14.158,6.459-6.23,6.459-6.23,10.04-16.229,11.918-33.278-3.426-45.271-13.58-53.206-8.788-6.867-20.425-7.2-26.58-6.783l-23.6,10.162c-11.555,7.623-19.867,33.33-19.94,33.582l3.266,24.473"/><path class="cls-25" d="M128.295,174.072a22.612,22.612,0,0,0,6.875,8.442l18.524,9.392c.955-.1,18.437-2.644,18.52-2.693C191.8,177.637,193.325,173.8,196.1,166.837c2-5.025,5.9-11.863,5.291-17.238-1.28-11.394-10.138-26.526-10.226-26.66a18.348,18.348,0,0,0-8.281-6.75c-.375-.124-21.561-3.255-21.8-3.221-.192.028-22.472,8.928-23.848,11.492L124.948,149.6l3.347,24.473"/><path class="cls-26" d="M135.806,173.138c.523,2.209,19.392,11.367,19.561,11.37.288,0,19.164-2.968,19.42-3.059a25.529,25.529,0,0,0,9.908-7.377c1.251-1.558,9.3-21.228,10.008-24.473.518-2.359-2.019-5.263-2.984-7.477-4.182-9.594-8.625-17.681-8.739-17.763-2.892-2.078-21.63-4.173-21.763-4.154-4.307.623-5.929,1.805-24.146,20.515-2.081,2.137-3.183,6.19-4.474,8.879l3.209,23.539"/><path class="cls-27" d="M152.219,174.072c.988,1.259,3.045,2.849,4.633,2.645,15.267-1.956,15.267-1.956,20.789-5.9.609-.436,8.85-20.263,8.818-21.215-.1-3-1.642-7.464-4.159-9.1-.522-.339-20.947-7.442-21.218-7.379L143.9,149.6l8.321,24.473"/><path class="cls-28" d="M160.068,151.32c.854.277,1.714-1.2,2.449-1.721-.676-.223-1.559-.9-2.253-.742a1.2,1.2,0,0,0-.787.742c-.131.53.071,1.552.591,1.721"/></g></g></g><g class="cls-3"><g class="cls-29"><g class="cls-3"><path class="cls-8" d="M238.828,122.939a117.132,117.132,0,0,1-1.521,18.86A115.672,115.672,0,0,1,232.9,159.69c-1.918,5.083-4.74,11.765-7.051,16.682a116.251,116.251,0,0,1-9.455,15.235c-6.468,8.15-10.031,12.64-18.17,19.614a115.926,115.926,0,0,1-47.727,24.61c-11.113,2.7-16.386,2.912-27.941,3.379a116.271,116.271,0,0,0,0-232.542c5.672.229,13.3.4,18.86,1.522,10.733,2.167,15.632,3.156,26.4,7.615A100.124,100.124,0,0,1,183.8,24.088c11.07,7.463,11.255,7.635,20.969,16.635A116.594,116.594,0,0,1,225.85,69.506c2.311,4.917,5.133,11.6,7.051,16.682a115.672,115.672,0,0,1,4.406,17.891c.686,5.635,1.407,13.185,1.521,18.86"/><path class="cls-8" d="M159.308,12.6c5.083,1.918,11.765,4.74,16.683,7.051l7.813,4.442,7.421,5.013,7,5.555,6.548,6.067A116.594,116.594,0,0,1,225.85,69.506h0c2.311,4.918,5.133,11.6,7.051,16.683a115.672,115.672,0,0,1,4.406,17.891h0c.686,5.635,1.292,13.188,1.521,18.86a117.132,117.132,0,0,1-1.521,18.86A115.672,115.672,0,0,1,232.9,159.69h0c-1.918,5.083-4.74,11.765-7.051,16.682a116.251,116.251,0,0,1-9.455,15.235h0c-3.329,4.195-7.982,9.62-11.622,13.548l-6.548,6.066-7,5.555L183.8,221.79l-7.813,4.442-8.176,3.841c-11.88,4.482-14.88,5.26-26.4,7.615l-9.324,1.136-9.536.386A116.284,116.284,0,0,0,143.58,8.564h0l-.3-.054,9.029,2,7,2.085"/></g></g></g><g class="cls-3"><g class="cls-30"><g class="cls-3"><path class="cls-8" d="M122.557,239.21a117.123,117.123,0,0,1-18.86-1.522,115.734,115.734,0,0,1-49.808-20.912,116.711,116.711,0,0,1-34.625-40.4A115.427,115.427,0,0,1,7.807,141.8a117.69,117.69,0,0,1,0-37.72A116.18,116.18,0,0,1,40.341,40.723,116.614,116.614,0,0,1,69.123,19.646,115.406,115.406,0,0,1,103.7,8.19a116.278,116.278,0,1,1,18.86,231.02"/><path class="cls-8" d="M238.81,122.939A116.282,116.282,0,0,1,28.719,191.607q-2.219-3.027-4.245-6.2h0c37.282,53.418,91.343,43.006,91.852,42.847,44.633-13.928,47.305-14.761,66.3-33.476,34.011-33.518,38.279-60.869,39.886-71.165,6.3-40.375-14.022-102.762-78.928-115.048a116.3,116.3,0,0,1,95.23,114.375"/><path class="cls-7" d="M186.6,32.211c76.626,72.649-3.119,189.246-83.118,191.9-24.535.813-71.281-11.584-90.859-63.2q-.208-.606-.412-1.215A115.672,115.672,0,0,1,7.807,141.8a117.69,117.69,0,0,1,0-37.72A116.18,116.18,0,0,1,40.341,40.723,116.614,116.614,0,0,1,69.123,19.646,115.819,115.819,0,0,1,118.891,6.725h0c25.691-.6,49.738,8.446,67.711,25.486"/><path class="cls-6" d="M196.711,50.217c51.044,84.155-43.147,188.829-121.636,165.919C37.511,205.171,12.786,176.65,7.238,137.887a117.752,117.752,0,0,1,.569-33.808A116.18,116.18,0,0,1,40.341,40.723,116.614,116.614,0,0,1,69.123,19.646,115.564,115.564,0,0,1,85.806,12.6q4.425-1.473,9-2.6h0C148.237-2.787,184,29.263,196.711,50.217"/><path class="cls-5" d="M202,71.806c25.555,84.632-70.32,171.938-146.552,133.452C46.4,200.688,1.5,174.729,6.758,112.382q.378-4.2,1.049-8.3A116.18,116.18,0,0,1,40.341,40.723,116.614,116.614,0,0,1,69.123,19.646q1.2-.624,2.422-1.22h0C140.983-12.8,189.634,30.844,202,71.806"/><path class="cls-9" d="M197.679,71.806c22.37,77.645-67.56,171.975-146.872,127.365C10.48,176.488-4.4,125.4,15.417,77.694q1.769-4.181,3.847-8.188A116.579,116.579,0,0,1,39.589,41.482h0c67.005-63.224,142.1-25.191,158.091,30.324"/><path class="cls-10" d="M195.755,89.6c7.671,85.762-92.12,149.669-154.749,99.1C-30.38,131.067,21.562,19.325,102.828,10.286c35.289-3.925,87.45,18.087,92.927,79.315"/><path class="cls-11" d="M192.22,96.279c.15,78.915-96.958,141.793-159.838,81.544-56.814-54.436-9.511-161.864,73.354-166.591,47.592-2.714,86.389,35.437,86.484,85.047"/><path class="cls-12" d="M187.928,96.279c-1.13,83.4-103.1,134.289-155.873,77.793-58.412-62.536,3.335-163.5,78.189-161.386,37.891,1.068,78.365,33.332,77.684,83.593"/><path class="cls-13" d="M183.484,96.279C181.09,180.6,82.109,220.757,35.907,174.072-25.793,111.727,32.68,11.96,108.6,14.477c47.647,1.58,75.971,43.691,74.889,81.8"/><path class="cls-14" d="M178.9,96.279c-2.449,75.878-93.532,122.61-143.322,73.535-58.335-57.5.857-156.016,71.409-153.33,44.5,1.694,73.113,42.627,71.913,79.795"/><path class="cls-15" d="M174.5,96.279c-2.719,68.088-90.3,121.111-141.031,67.182-48.659-51.723-.918-147.786,71.947-144.77,43.106,1.784,70.522,41.559,69.084,77.588"/><path class="cls-16" d="M170.064,96.279c-3.349,67.533-89.411,116.428-138.4,60.65C-11.272,108.052,36.69,17.856,103.942,21c43.048,2.012,67.839,40.642,66.122,75.278"/><path class="cls-17" d="M165.527,96.279C161.6,162.824,77.316,207.412,30.167,150.23-4.67,107.978,35.614,20.009,102.51,23.492,148.8,25.9,167.226,67.506,165.527,96.279"/><path class="cls-18" d="M160.89,96.279c-4.156,62.5-83.21,106.011-126.839,53.32-38.259-46.206,5.616-126.961,67.066-123.44,40.18,2.3,61.945,37.46,59.773,70.12"/><path class="cls-19" d="M156.135,96.279C150.858,157.126,75.2,191.51,38.816,149.6-4.845,99.311,42.5,25.419,99.766,29c34.114,2.131,59.4,32.314,56.369,67.281"/><path class="cls-20" d="M143.13,122.939c-16.863,34.854-86.1,69.9-115.591,1C9.387,81.526,62.1,15.473,112.934,35.113c6.53,2.522,26.4,10.2,35.51,36.693,4.752,13.819,2.567,34.846-5.314,51.133"/><path class="cls-21" d="M137.4,122.939c-4.094,8.322-26.149,26.526-26.347,26.66-5.722,3.861-25.264,8.25-25.4,8.25-11.4,0-41.677.005-54.58-34.9C13.329,74.935,66.5,20.227,112.353,39.327c31.826,13.257,42.361,48.421,25.049,83.612"/><path class="cls-22" d="M133.2,118.209c-4.873,12.389-29.335,33.678-48.025,34.582-34.723,1.678-46.934-22.425-49.85-29.852C21.679,88.183,44.055,65.023,56.076,52.58c.223-.23,25.276-21.748,55.725-8.8,16.894,7.184,25.849,27.832,25.9,28.026,5.8,20.187,1.922,30.054-4.508,46.4"/><path class="cls-23" d="M133.027,101.568c-7.582,19.37-7.582,19.37-25.043,35.79L84.715,147c-.106.024-21.492-2.854-21.588-2.906-.186-.1-19.194-11.35-23.274-21.154-14.2-34.136,7.41-56.672,14.512-64.078,3.986-4.156,25.464-24.191,56.915-10.4,4.725,2.072,20.767,23.024,20.838,23.2.064.157,4.989,19.487.909,29.91"/><path class="cls-24" d="M115.043,122.939a25.39,25.39,0,0,1-7.145,6.922L84.3,140.023c-.169.045-21.295-2.934-21.737-3.065-.941-.279-16.336-12.988-16.981-14.019-1.4-2.241-3.325-5.31-5.769-22.31C38.272,89.9,47.26,71.948,47.357,71.806c4.693-6.937,5.184-7.662,26.328-21.236,3.259-2.092,23.69-5.77,36.938,4.6l13.949,16.632c.018.044,3.254,24.288,3.266,24.473l-12.795,26.66"/><path class="cls-25" d="M107.874,121.418c-2.2,3.076-23.668,11.459-23.848,11.491-.2.038-21.39-3.093-21.8-3.221-11.179-3.5-17.666-27.885-17.73-28.131-2.711-10.38,7.752-29.576,7.863-29.751C52.747,71.2,70.79,57.9,72.9,56.665c.074-.043,18.421-2.711,18.52-2.693l18.524,9.392c2.56,2.029,5.906,5.323,6.875,8.442l3.347,24.473-12.292,25.139"/><path class="cls-26" d="M108.043,105.157l-18.23,17.782c-3.712,2.2-10.039,2.141-14.3,1.484-11.8-1.817-12.5-1.926-13.377-2.9-1.63-1.828-11.71-23.53-11.723-25.24C50.4,94.794,58.63,74.666,60.419,71.806c1.964-3.143,6.488-5.949,9.908-7.377.208-.087,19.264-3.089,19.42-3.059l19.227,10.436c.624.713,3.548,24.275,3.543,24.473-.084,2.981-2.7,6.482-4.474,8.878"/><path class="cls-27" d="M84.032,112.756c-.294.069-20.917-7.1-21.218-7.378-2.209-2.031-4.615-6.133-4.159-9.1.239-1.555,7.821-19.8,8.818-21.215a10.091,10.091,0,0,1,4.961-3.258c.332-.095,15.717-2.666,15.828-2.646,1.575.286,3.943,1.2,4.633,2.646l8.321,24.473L84.032,112.756"/><path class="cls-28" d="M84.85,97.021c-.694.155-1.577-.519-2.253-.742.735-.516,1.595-2,2.449-1.721.52.168.722,1.191.591,1.721a1.206,1.206,0,0,1-.787.742"/></g></g></g></g><path class="cls-31" d="M80.454,138c-8.885-.334-46.8,13.486-28.5,41.59,23.953-4.215,12.832-13.27,22.3-20.331,5.709,1.336,8.062,2.778,24.8,12.18Z"/><path class="cls-32" d="M202.852,180.915l3.061-13.991-13.061-20.332L167.4,137.518l-15.392,32.063c7.4-.607,9.63,2.112,18.727-2.351,5.005-3,0,0,0,0a45.527,45.527,0,0,0,7.781-5.043h0c1.095,7.173,13.783,23.462,24.335,18.729"/><path d="M28.651,62.915h101.96V80.029c-5.139.631-13.972-2.532-15.759,5.885-1.925,1.77,24.3,52.459,25,55,2.009-5.873,21.523-46.591,21-52-1-10.947-13.092-9.824-20-9l-.094-17h72.967v16.51c-13.642-1.818-23.549,7.8-29.872,20.49l-49,112H118.329c-7.311-11.452-63-122.708-72.476-128-4-3-17.2-3-17.2-3Z"/><path class="cls-33" d="M34.852,67.915h89.8v4.906c-13.379-.913-19.275,8.7-13.8,23.094l29,59c2.286-7.97,30.666-61.152,27-69-1.123-11-14.549-11.412-20-13v-5H207.5v4.926c-8.224-.591-17.772,4.369-22.65,11.075-6.814,7.371-47.548,106.434-54,123h-8.134l-61.866-114c-1.96-4.056-15.108-23.248-26-19.772Z"/><path class="cls-34" d="M202.852,180.915c9-2,8-11,8-11l-1-21a26.672,26.672,0,0,1,3.873-12.953c3.169-15.927-22.858-32.008-24.059-31.333-64.1-19.019-112.532-15.76-146.815,19.285-9.722,15.525-.069,17.576-2,37.919-2.937,15.024,5.666,19.466,11.529,17.654-22.969-39.453,49.735-55.686,114.326-41.971,0,0,28.2,9.432,33.279,20.268l5.047,12.131Z"/><path d="M202.782,175.179a6.439,6.439,0,0,0,1.614-2.9,7.023,7.023,0,0,0-.279-3.361c-.315-1.122-.7-2.235-1.039-3.363s-.62-2.271-.854-3.422c.3,1.137.636,2.26,1.032,3.364s.839,2.189,1.22,3.312a7.482,7.482,0,0,1,.473,3.572,7.075,7.075,0,0,1-1.593,3.281Z"/><path d="M52.784,179.574a.658.658,0,0,1-.074.159.462.462,0,0,1-.229.165.474.474,0,0,1-.352-.038.912.912,0,0,1-.214-.16,2.586,2.586,0,0,1-.25-.282c-.144-.185-.269-.371-.39-.558-.239-.375-.457-.757-.665-1.142-.415-.771-.79-1.558-1.138-2.356a38.484,38.484,0,0,1-1.757-4.907,29.429,29.429,0,0,1-.991-5.107,17.905,17.905,0,0,1,.185-5.174,22.6,22.6,0,0,0,1.165,10.173,38.163,38.163,0,0,0,1.909,4.781c.371.772.768,1.533,1.2,2.268.216.368.44.729.678,1.074.12.171.243.339.37.491a1.809,1.809,0,0,0,.186.2c.027.026.054.04.043.035s-.048-.042-.2-.01a.306.306,0,0,0-.165.119.187.187,0,0,0-.041.085Z"/><path d="M83.754,158.79l-3.144-1.43-1.569-.7-1.59-.634a21.954,21.954,0,0,0-6.538-1.527,12.962,12.962,0,0,0-6.445,1.293A8.749,8.749,0,0,0,63,156.61l-.72.448-.667.527A30.122,30.122,0,0,0,59,159.822a20.839,20.839,0,0,1,2.293-2.611l.64-.6.706-.524a9.54,9.54,0,0,1,1.471-.974,12.313,12.313,0,0,1,6.857-1.61,18.777,18.777,0,0,1,6.779,1.819A40.274,40.274,0,0,1,83.754,158.79Z"/><path d="M80,138.115l18.42,32.448.177.311-.321-.1a19.324,19.324,0,0,1-3.067-1.432l-2.936-1.595L86.4,164.561c-1.964-1.044-3.941-2.065-5.952-3-1.007-.467-2.022-.915-3.055-1.305a9.32,9.32,0,0,0-3.126-.753l.155-.07a1.3,1.3,0,0,1-.165.1l-.1.062-.206.134c-.137.09-.268.193-.4.293a7.915,7.915,0,0,0-.742.665,9.343,9.343,0,0,0-1.246,1.561,10.363,10.363,0,0,0-.893,1.792,12.5,12.5,0,0,0-.561,1.929l0-.05a12.794,12.794,0,0,1-4.282,8.7,18.349,18.349,0,0,1-8.8,4.2c-.8.141-1.627.307-2.412.426s-1.55.335-2.349.516a10.652,10.652,0,0,1-4.949.2,8.288,8.288,0,0,1-4.165-2.7,17.867,17.867,0,0,1-2.585-4.206l.03-.307c-.083.042-.059.272-.059.216l-.014-.051-.025-.1-.045-.2-.076-.4c-.047-.264-.083-.528-.115-.792-.065-.529-.1-1.057-.131-1.585-.054-1.057-.047-2.112-.011-3.165s.118-2.1.218-3.15l.172-1.563c.048-.519.069-1.037.1-1.555A49.157,49.157,0,0,0,40,147.975c-.663-4.085-2.106-8.135-1.893-12.456.316-4.3,2.2-8.257,4.421-11.8l.022-.035.029-.03a100.754,100.754,0,0,1,32.05-22.18A112.8,112.8,0,0,1,112.7,92.884a177.79,177.79,0,0,1,39.019,2.405,310.012,310.012,0,0,1,38.064,8.939l.212.146c.045-.029-.041-.082.057-.032l.221.1.44.2.868.427c.576.288,1.141.595,1.7.906,1.125.623,2.219,1.3,3.3,2a52.915,52.915,0,0,1,6.118,4.686,42.993,42.993,0,0,1,5.307,5.593,38.964,38.964,0,0,1,4.178,6.492l.007.014.007.018a38.54,38.54,0,0,1,1.592,5.491,21.285,21.285,0,0,1,.417,2.846,10.588,10.588,0,0,1-.135,2.923l-.011.055-.039.064a26.486,26.486,0,0,0-3.789,11.514,25.65,25.65,0,0,0,.042,3.069l.143,3.1.287,6.195.287,6.194.143,3.1a13.912,13.912,0,0,1-.077,3.163,9.932,9.932,0,0,1-8.146,8.713l.029-.008a15.73,15.73,0,0,1-8.6-.079,15.909,15.909,0,0,1-7.258-4.573,59.513,59.513,0,0,1-5.332-6.719,30.021,30.021,0,0,1-2.193-3.705,12.657,12.657,0,0,1-.795-2.027,4.578,4.578,0,0,1-.148-2.235l.395.247a40.139,40.139,0,0,1-5.824,4.113,27.8,27.8,0,0,1-6.59,2.721,39.394,39.394,0,0,1-14.158.78l-.187-.018.077-.172,14.379-32.008-14.131,32.118-.11-.189a39.12,39.12,0,0,0,14.03-.878,27.421,27.421,0,0,0,6.474-2.732,39.7,39.7,0,0,0,5.725-4.11l.525-.444-.13.691a6.8,6.8,0,0,0,.925,3.922,29.656,29.656,0,0,0,2.165,3.634,59.18,59.18,0,0,0,5.3,6.639,15.363,15.363,0,0,0,7.021,4.4,15.205,15.205,0,0,0,8.261.064l.029-.008h0a9.331,9.331,0,0,0,7.659-8.227,13.245,13.245,0,0,0,.064-3.027l-.152-3.1-.3-6.2-.3-6.2-.152-3.1a25.867,25.867,0,0,1-.049-3.132,27.16,27.16,0,0,1,3.871-11.864l-.05.119a9.937,9.937,0,0,0,.113-2.714,20.672,20.672,0,0,0-.411-2.75,38.017,38.017,0,0,0-1.572-5.37l.014.032a38.273,38.273,0,0,0-4.11-6.348,42.127,42.127,0,0,0-5.229-5.48,52.055,52.055,0,0,0-6.036-4.6c-1.067-.682-2.146-1.346-3.255-1.956-.554-.3-1.111-.605-1.677-.886l-.85-.416-.428-.2-.214-.1a1.633,1.633,0,0,1-.382-.223l.212.146a309.084,309.084,0,0,0-37.977-8.812,183,183,0,0,0-38.815-2.369,111.856,111.856,0,0,0-37.786,8.415,99.94,99.94,0,0,0-31.85,21.92l.051-.065c-2.208,3.5-4.029,7.344-4.341,11.448-.223,4.117,1.179,8.147,1.85,12.294a49.85,49.85,0,0,1,.59,12.588c-.038.524-.062,1.053-.111,1.574l-.176,1.556c-.1,1.035-.183,2.072-.223,3.11s-.048,2.076,0,3.109c.026.516.061,1.032.123,1.542.031.255.064.51.109.761l.07.373.041.183.022.089.011.044c.008-.024.042.237-.033.31l.031-.306a17.243,17.243,0,0,0,2.476,4.059,7.683,7.683,0,0,0,3.849,2.522,10.079,10.079,0,0,0,4.675-.184c.782-.174,1.567-.406,2.4-.519.818-.122,1.583-.277,2.377-.413a17.811,17.811,0,0,0,8.55-4.043,12.292,12.292,0,0,0,4.13-8.3l0-.04,0-.011a13.046,13.046,0,0,1,.591-2.013,10.806,10.806,0,0,1,.944-1.88,9.92,9.92,0,0,1,1.318-1.644,8.538,8.538,0,0,1,.791-.7c.142-.106.281-.214.432-.31l.226-.145.117-.068c.035-.016.1-.068.061-.022l.155-.071a9.546,9.546,0,0,1,3.328.808c1.047.4,2.067.864,3.076,1.342,2.016.96,3.989,2,5.949,3.06l5.847,3.235,2.921,1.615a20.358,20.358,0,0,0,2.959,1.424l-.145.211Z"/><path d="M163.822,163.682c2.1-.967,4.161-2.007,6.168-3.138,1-.565,1.993-1.154,2.949-1.784a16.376,16.376,0,0,0,2.668-2.091l.051-.052.051-.018a20.235,20.235,0,0,1,3.62-.877,21.964,21.964,0,0,1,3.683-.3,13.637,13.637,0,0,1,3.7.49,10.476,10.476,0,0,1,3.375,1.682l.118.089.032.135a10.817,10.817,0,0,0,.833,2.412,4.542,4.542,0,0,0,.7,1.044,1.8,1.8,0,0,0,1.077.591v.1a1.874,1.874,0,0,1-1.3-.442,4.057,4.057,0,0,1-.93-1.028,9.739,9.739,0,0,1-1.158-2.484l.15.224a10.483,10.483,0,0,0-3.164-1.348,17.48,17.48,0,0,0-3.465-.473,21.244,21.244,0,0,0-3.544.13,19.59,19.59,0,0,0-3.447.686l.1-.07a17.038,17.038,0,0,1-2.853,2.082q-1.493.91-3.053,1.681c-2.072,1.041-4.187,1.983-6.331,2.851Z"/><path d="M160.073,96.971c2.643,1.081,5.36,2.02,8.02,3.083q4.005,1.567,7.944,3.3a118.658,118.658,0,0,1,15.256,7.955,61.346,61.346,0,0,1,6.969,5.082,29.491,29.491,0,0,1,5.772,6.442,13.716,13.716,0,0,1,2.39,8.305,15.068,15.068,0,0,1-3.286,8.026l-.05.066-.078.038c-.282.138-.437.841-.473,1.417a15.446,15.446,0,0,0-.011,1.865c.054,1.259.173,2.528.271,3.8s.191,2.556.185,3.855a7.9,7.9,0,0,1-.774,3.944l.044-.388.768,2-.26-.256a2.556,2.556,0,0,1,1.207,1.032,5.739,5.739,0,0,1,.612,1.308,14.051,14.051,0,0,1,.572,2.692,33.925,33.925,0,0,1,.19,5.407v-.065c.185,2.751.334,5.612-.766,8.38l-.572.978a7.217,7.217,0,0,1-.815.825,4.091,4.091,0,0,1-1.01.573l-.542.2c-.183.049-.369.068-.554.1a11.858,11.858,0,0,1-4.271-.312c-.686-.146-1.354-.327-2.024-.5a18.593,18.593,0,0,1-2.031-.631,10.885,10.885,0,0,1-3.416-2.59,35.15,35.15,0,0,1-4.827-6.8l.017.028a21,21,0,0,1-1.732-3.154,5.539,5.539,0,0,1-.474-1.815,1.84,1.84,0,0,1,.2-1.037,1.231,1.231,0,0,1,.984-.626l-.111.024a2.345,2.345,0,0,1,2.039.24,5.7,5.7,0,0,1,1.469,1.261,16.1,16.1,0,0,1,2.07,3.127,16.156,16.156,0,0,0,.842,1.606,6.406,6.406,0,0,0,1.227,1.274,9.053,9.053,0,0,0,3.232,1.563l-.014,0a1.236,1.236,0,0,0,1.061-.44,3.866,3.866,0,0,0,.668-1.082,10.473,10.473,0,0,0,.662-2.526l.1.01a10.662,10.662,0,0,1-.58,2.589,4.05,4.05,0,0,1-.671,1.174,1.506,1.506,0,0,1-1.271.565h-.008l-.006,0a9.406,9.406,0,0,1-3.429-1.508,6.3,6.3,0,0,1-1.361-1.337,16.075,16.075,0,0,1-.9-1.642,15.569,15.569,0,0,0-2.05-2.98,5.14,5.14,0,0,0-1.334-1.111,1.719,1.719,0,0,0-1.5-.179l-.038.016-.073.008c-.366.041-.595.457-.533.981a4.915,4.915,0,0,0,.452,1.574,20.332,20.332,0,0,0,1.722,3l.005.007.012.022a34.428,34.428,0,0,0,4.814,6.525,10.117,10.117,0,0,0,3.138,2.316,18.328,18.328,0,0,0,1.9.587c.659.173,1.317.351,1.975.491a10.949,10.949,0,0,0,3.894.305,3.451,3.451,0,0,0,2.755-2.11c.964-2.384.867-5.205.693-7.889l0-.034v-.033a32.961,32.961,0,0,0-.133-5.239,13.208,13.208,0,0,0-.506-2.52,2.791,2.791,0,0,0-1.263-1.8l-.192-.074-.068-.182-.749-2-.073-.2.117-.192a7.316,7.316,0,0,0,.668-3.479c.019-1.253-.062-2.52-.15-3.789s-.2-2.542-.244-3.832a16.46,16.46,0,0,1,.028-1.958,5.3,5.3,0,0,1,.177-1.014,1.552,1.552,0,0,1,.716-.991l-.127.1a14.386,14.386,0,0,0,3.2-7.622,13.091,13.091,0,0,0-2.236-7.947,28.9,28.9,0,0,0-5.614-6.359,62.759,62.759,0,0,0-6.865-5.1,118.457,118.457,0,0,0-15.127-8.084q-3.91-1.776-7.9-3.376c-2.651-1.091-5.346-2.052-8-3.169Z"/><path d="M201.852,169.915a17.04,17.04,0,0,0,.746-5.752,15.437,15.437,0,0,0-1.583-5.548,20.648,20.648,0,0,0-3.375-4.692,33.259,33.259,0,0,0-4.392-3.783,54.171,54.171,0,0,0-10.113-5.694,96.738,96.738,0,0,0-10.922-4.018,180.968,180.968,0,0,0-45.973-6.977c-15.517-.46-31.194.622-46.235,4.545-7.464,2.036-14.849,4.835-21.14,9.394a29.73,29.73,0,0,0-7.913,8.4,22.373,22.373,0,0,0-3.077,11.1,22.5,22.5,0,0,1,2.865-11.224A30.084,30.084,0,0,1,58.573,147c6.311-4.7,13.733-7.6,21.229-9.744a132.981,132.981,0,0,1,23.061-4.076,192.936,192.936,0,0,1,23.408-.725,203.571,203.571,0,0,1,23.322,2.11A151.228,151.228,0,0,1,172.44,139.7a97.38,97.38,0,0,1,10.954,4.176,54.187,54.187,0,0,1,10.144,5.876,33.708,33.708,0,0,1,4.37,3.926,20.964,20.964,0,0,1,3.325,4.832,15.609,15.609,0,0,1,1.486,5.648A17.124,17.124,0,0,1,201.852,169.915Z"/><path d="M55.852,171.915c.984-.381,1.937-.829,2.874-1.3a22.5,22.5,0,0,0,2.7-1.6,13.436,13.436,0,0,0,2.358-2,6.269,6.269,0,0,0,1.5-2.562l-.012.091c-.024-1.572-.076-3.145-.076-4.717v-.053h0s-.013-.07,0-.028.106.063.074.065a.987.987,0,0,0-.353.127,6.152,6.152,0,0,0-.945.651c-.62.506-1.2,1.082-1.785,1.657l.073-.1a8.674,8.674,0,0,1-1.21,1.526,8.873,8.873,0,0,1-1.5,1.22,7.586,7.586,0,0,1-3.661,1.24l.088-.015a7.638,7.638,0,0,1-1.567.2,3.316,3.316,0,0,1-1.672-.347,2.464,2.464,0,0,1-.4-.312,3.075,3.075,0,0,1-.289-.444c-.046-.161-.086-.326-.119-.49-.008-.156.006-.306.012-.458a4.474,4.474,0,0,1,.19-.825l.316-.726.007-.015.016-.025c1.888-2.936,3.5-6.03,5.4-9.019a19.371,19.371,0,0,1,3.391-4.085,22.187,22.187,0,0,1,4.357-2.976,25.119,25.119,0,0,0-4.1,3.248,21.6,21.6,0,0,0-3.115,4.145c-.887,1.495-1.68,3.058-2.513,4.6s-1.733,3.065-2.657,4.567l.022-.039-.263.624a3.794,3.794,0,0,0-.132.605.687.687,0,0,0,.343.8,2.457,2.457,0,0,0,1.181.2,6.788,6.788,0,0,0,1.344-.186l.04-.009.048,0a7.072,7.072,0,0,0,3.2-1.074A7.97,7.97,0,0,0,60.373,163a7.871,7.871,0,0,0,1.08-1.321l.041-.063.032-.032c.6-.583,1.21-1.165,1.881-1.7a7.074,7.074,0,0,1,1.111-.738,1.592,1.592,0,0,1,.827-.207.742.742,0,0,1,.586.358.921.921,0,0,1,.113.573l0-.052c0,1.572-.052,3.145-.075,4.717v.055l-.012.037a6.9,6.9,0,0,1-1.755,2.782,12.336,12.336,0,0,1-2.543,1.966A25.14,25.14,0,0,1,55.852,171.915Z"/><path d="M75.619,131.032l-9.86-10.35c1.232,1.962,2.086,11.908,5.784,10.258l.422,1.288L66.3,134.081l-.421-1.289c3.778-.808-1.429-9.637-1.579-11.851-.573-1.639-1.055-1.813-2.727-1.305l-.421-1.287,6.3-2.061,8.232,8.749L77.2,113.1l6.322-2.069.422,1.287c-1.606.46-2.148,1.038-1.574,2.647l3.045,9.305c.489,1.676,1.327,1.769,2.881,1.19l.421,1.287-8.561,2.8-.422-1.288c1.6-.453,2.133-1.042,1.562-2.643l-3.025-9.246-1.747,14.366Z"/><path d="M85.464,111.746l-.294-1.323,8.543-1.9.294,1.322c-1.629.31-2.128.845-1.74,2.464l2.125,9.556c.336,1.642,1.028,1.9,2.621,1.493l.293,1.323-8.543,1.9-.294-1.323c1.676-.412,2.035-.764,1.693-2.452l-2.126-9.556C87.629,111.594,87.193,111.4,85.464,111.746Z"/><path d="M98.214,124.176l-.84-5.6,1.449-.217c.689,4.6,9.04,5.72,6.514.467-1.05-1.037-5.475-2.031-6.1-2.509-6.542-3.069-.292-12.532,5.3-8.4a3.366,3.366,0,0,0,.232-1.171l1.388-.208.723,4.829-1.352.2c-1.2-5.237-9.648-2.808-4.366.846,12.921,1.472,8.813,15.569-1.28,10.159a4.649,4.649,0,0,0-.211,1.389Z"/><path d="M110.929,122.333l-.346-5.654,1.463-.09c.283,4.648,8.5,6.489,6.448,1.036-.956-1.126-5.276-2.5-5.861-3.035-6.248-3.628.806-12.509,6.01-7.907a3.308,3.308,0,0,0,.333-1.145l1.4-.086.3,4.874-1.365.084c-.734-5.322-9.365-3.645-4.424.46,12.743,2.595,7.417,16.28-2.163,10.007a4.674,4.674,0,0,0-.333,1.366Z"/><path d="M123.348,106.755l.025-1.354,8.751.163-.025,1.354c-1.656-.083-2.267.322-2.272,1.985l-.182,9.788c-.06,1.674.552,2.089,2.195,2.068l-.025,1.355-8.751-.163.026-1.356c1.726-.007,2.157-.263,2.222-1.984l.183-9.789C125.488,107.118,125.11,106.823,123.348,106.755Z"/><path d="M133.493,113.621c1.363-11.263,20.281-8.63,18.341,2.567C150.694,127.429,131.517,124.79,133.493,113.621Zm5.078.524c-1.39,5.111,2.112,10.14,6.474,6.547C151.482,111.066,141.084,100.591,138.571,114.145Z"/><path d="M158.1,114.036c-.072,2.3-4.715,9.962-.659,10.729l-.379,1.3-5.965-1.737.379-1.3c1.652.453,2.641-.436,2.994-2.116.008-2.207,4.927-10.447.8-11.2l.379-1.3,5.368,1.563,5.875,12.264c.189-2.089,3.869-8.326.262-9.065l.379-1.3,5.708,1.663-.379,1.3c-1.484-.393-2.454.556-2.787,2.062l-3.555,12.2-1.5-.436Z"/><path d="M169.221,129.6l2.274-5.187,1.342.589c-1.871,4.263,4.6,9.656,5.263,3.866-.336-1.439-3.551-4.635-3.828-5.377-3.9-6.082,6.431-10.759,8.958-4.289a3.323,3.323,0,0,0,.82-.866l1.286.563-1.961,4.472-1.252-.549c1.778-5.07-6.668-7.519-4.146-1.611,10.15,8.13-.838,17.87-6.5,7.915a4.641,4.641,0,0,0-.919,1.062Z"/><path d="M201.7,140.448a14.235,14.235,0,0,0-.484-10.3,31.534,31.534,0,0,0-5.856-8.959,59.762,59.762,0,0,0-7.949-7.337,62.863,62.863,0,0,0-9.064-5.951,62.958,62.958,0,0,1,9.215,5.752,60.15,60.15,0,0,1,8.167,7.2,32.132,32.132,0,0,1,6.18,9.009,17.439,17.439,0,0,1,1.392,5.363,13.71,13.71,0,0,1-.656,5.548Z"/><path d="M204.392,162.634a2.959,2.959,0,0,0,.052-.882,6.769,6.769,0,0,0-.14-1,11.791,11.791,0,0,0-.66-1.991c-.264-.655-.614-1.283-.943-1.915-.382-.607-.723-1.24-1.138-1.829a51.068,51.068,0,0,0-5.523-6.686c-2.016-2.089-4.133-4.089-6.33-6-2.176-1.935-4.46-3.741-6.728-5.57,2.319,1.763,4.656,3.5,6.89,5.38q3.384,2.771,6.524,5.836a51.641,51.641,0,0,1,5.784,6.611c.441.589.813,1.232,1.223,1.847.362.646.742,1.286,1.042,1.973a12.58,12.58,0,0,1,.772,2.129,7.63,7.63,0,0,1,.193,1.152,3.185,3.185,0,0,1,.019.605,2.543,2.543,0,0,1-.1.682Z"/><path d="M40.594,163.732a39.6,39.6,0,0,1,.452-8.28,59.713,59.713,0,0,1,1.875-8.1,49.019,49.019,0,0,1,3.037-7.754c.607-1.25,1.343-2.433,2.041-3.631.737-1.175,1.549-2.3,2.371-3.416l.084.053c-.579,1.264-1.243,2.468-1.846,3.7-.561,1.257-1.244,2.447-1.748,3.724-1.157,2.481-2.23,5-3.179,7.572a59,59,0,0,0-2.142,7.938,39.3,39.3,0,0,0-.845,8.187Z"/></g></g></svg>