<svg xmlns="http://www.w3.org/2000/svg" viewBox="0 0 33.08 27.58"><defs><style>.cls-1{fill:#fff;stroke-width:1.08px;}.cls-1,.cls-2{stroke:#000;stroke-linecap:round;stroke-linejoin:round;}.cls-2{stroke-width:0.83px;}</style></defs><g id="Layer_2" data-name="Layer 2"><g id="Layer_3" data-name="Layer 3"><path class="cls-1" d="M30.333,10.54c1.933,0,2.207,2.791,2.207,5s-.067,3-2,3v5c0,1.933-.925,3.5-2.375,3.5s-2.625-1.567-2.625-3.5v-3l-1-1h-15l-1,1v3c0,1.933-1.175,3.5-2.625,3.5S3.54,25.473,3.54,23.54v-5c-1.933,0-3-.791-3-3s.86-5,2.793-5L3.04,9.969V4.54a3.775,3.775,0,0,1,3.5-4h20a3.775,3.775,0,0,1,3.5,4V9.969Z"/><path class="cls-2" d="M6.16,5.866A2.9,2.9,0,0,1,8.851,2.79H24.229A2.9,2.9,0,0,1,26.92,5.866V10.04H6.16Z"/></g></g></svg>