<svg xmlns="http://www.w3.org/2000/svg" viewBox="0 0 33 33"><defs><style>.cls-1,.cls-2{stroke:#000;}.cls-1{stroke-miterlimit:10;}.cls-2{fill:#fff;stroke-linecap:round;stroke-linejoin:bevel;}</style></defs><g id="Layer_2" data-name="Layer 2"><g id="Layer_2-2" data-name="Layer 2"><rect class="cls-1" x="16" y="23" width="11" height="9"/><path class="cls-2" d="M18.5,30.5a1.959,1.959,0,0,1-2,2H7.188s-2.688,0-2.688-2v-11s0-1-2-2a3.552,3.552,0,0,1-2-3V12.886a3.7,3.7,0,0,1,1-2.386l12-9a10.073,10.073,0,0,1,3-1,10.073,10.073,0,0,1,3,1l12,8a3.491,3.491,0,0,1,1,2v2.191s0,1.809-1,1.809h-2a.979.979,0,0,0-1,1v15a.979.979,0,0,1-1,1H25.248s-.748,0-.748-2v-5a.979.979,0,0,0-1-1h-4a.979.979,0,0,0-1,1Z"/><path class="cls-1" d="M9.5,17.887V16.223c.029-1.671,1.187-1.664,1.187-1.664l2.8-.059c1.59,0,1.55,1.723,1.55,1.723v3.328c-.029,1.671-1.385,1.664-1.385,1.664h-2.5a1.613,1.613,0,0,1-1.59-1.671Z"/></g></g></svg>